<svg width="1040" height="840" viewBox="0 0 1040 840" fill="none" xmlns="http://www.w3.org/2000/svg">
  <defs>
    <linearGradient id="bg" x1="60" y1="50" x2="980" y2="790" gradientUnits="userSpaceOnUse">
      <stop stop-color="#3B82F6" stop-opacity="0.55"/>
      <stop offset="1" stop-color="#8B5CF6" stop-opacity="0.45"/>
    </linearGradient>
    <linearGradient id="card" x1="180" y1="180" x2="900" y2="720" gradientUnits="userSpaceOnUse">
      <stop stop-color="#FFFFFF" stop-opacity="0.72"/>
      <stop offset="1" stop-color="#FFFFFF" stop-opacity="0.28"/>
    </linearGradient>
    <filter id="soft" x="-10%" y="-10%" width="120%" height="120%" color-interpolation-filters="sRGB">
      <feGaussianBlur stdDeviation="22"/>
    </filter>
  </defs>

  <rect width="1040" height="840" rx="54" fill="url(#bg)"/>

  <g filter="url(#soft)" opacity="0.45">
    <circle cx="250" cy="250" r="180" fill="#FFFFFF"/>
    <circle cx="820" cy="620" r="220" fill="#FFFFFF"/>
  </g>

  <rect x="120" y="140" width="800" height="560" rx="40" fill="url(#card)" stroke="#FFFFFF" stroke-opacity="0.35"/>

  <rect x="170" y="210" width="340" height="22" rx="11" fill="#0B1220" fill-opacity="0.18"/>
  <rect x="170" y="250" width="560" height="18" rx="9" fill="#0B1220" fill-opacity="0.12"/>
  <rect x="170" y="282" width="520" height="18" rx="9" fill="#0B1220" fill-opacity="0.12"/>
  <rect x="170" y="314" width="480" height="18" rx="9" fill="#0B1220" fill-opacity="0.12"/>

  <rect x="170" y="380" width="700" height="120" rx="26" fill="#FFFFFF" fill-opacity="0.22"/>
  <rect x="190" y="404" width="260" height="18" rx="9" fill="#0B1220" fill-opacity="0.13"/>
  <rect x="190" y="436" width="420" height="14" rx="7" fill="#0B1220" fill-opacity="0.10"/>
  <rect x="190" y="462" width="380" height="14" rx="7" fill="#0B1220" fill-opacity="0.10"/>

  <rect x="170" y="530" width="220" height="54" rx="27" fill="#FFFFFF" fill-opacity="0.32"/>
  <rect x="410" y="530" width="220" height="54" rx="27" fill="#FFFFFF" fill-opacity="0.22"/>
  <rect x="650" y="530" width="220" height="54" rx="27" fill="#FFFFFF" fill-opacity="0.22"/>

  <text x="170" y="660" font-family="Inter, Arial" font-size="24" font-weight="700" fill="#FFFFFF" fill-opacity="0.85">About section illustration (placeholder)</text>
</svg>
